<svg width="31" height="31" viewBox="0 0 31 31" fill="none" xmlns="http://www.w3.org/2000/svg">
<rect width="31" height="31" rx="5" fill="black"/>
<path d="M14.7688 12.0688H24.4719C23.9469 10.6813 23.1125 9.45781 21.9688 8.39844C20.825 7.33906 19.5219 6.6125 18.0594 6.21875L14.7688 12.0688ZM12.1531 14.4031L17.0469 5.99375C16.8219 5.975 16.5688 5.96094 16.2875 5.95156C16.0063 5.94219 15.7438 5.9375 15.5 5.9375C14.15 5.9375 12.9125 6.18125 11.7875 6.66875C10.6625 7.15625 9.65 7.83125 8.75 8.69375L12.1531 14.4031ZM6.21875 17.9469H12.8844L8.10313 9.425C7.39063 10.2688 6.85156 11.2109 6.48594 12.2516C6.12031 13.2922 5.9375 14.375 5.9375 15.5C5.9375 15.8938 5.95625 16.3063 5.99375 16.7375C6.03125 17.1688 6.10625 17.5719 6.21875 17.9469ZM12.9688 24.7531L16.3438 18.9313H6.55625C7.08125 20.3188 7.91094 21.5422 9.04531 22.6016C10.1797 23.6609 11.4875 24.3781 12.9688 24.7531ZM15.5 25.0625C16.85 25.0625 18.0922 24.8188 19.2266 24.3313C20.3609 23.8438 21.3688 23.1688 22.25 22.3063L18.875 16.5969L13.9531 25.0063C14.1969 25.025 14.4547 25.0391 14.7266 25.0484C14.9984 25.0578 15.2563 25.0625 15.5 25.0625ZM22.925 21.575C23.5625 20.7875 24.0781 19.8594 24.4719 18.7906C24.8656 17.7219 25.0625 16.625 25.0625 15.5C25.0625 15.0875 25.0438 14.6703 25.0063 14.2484C24.9688 13.8266 24.9031 13.4188 24.8094 13.025H18.1438L22.925 21.575ZM15.5 26.75C13.9625 26.75 12.5094 26.4547 11.1406 25.8641C9.77188 25.2734 8.57656 24.4672 7.55469 23.4453C6.53281 22.4234 5.72656 21.2281 5.13594 19.8594C4.54531 18.4906 4.25 17.0375 4.25 15.5C4.25 13.9438 4.54531 12.4859 5.13594 11.1266C5.72656 9.76719 6.53281 8.57656 7.55469 7.55469C8.57656 6.53281 9.77188 5.72656 11.1406 5.13594C12.5094 4.54531 13.9625 4.25 15.5 4.25C17.0563 4.25 18.5141 4.54531 19.8734 5.13594C21.2328 5.72656 22.4234 6.53281 23.4453 7.55469C24.4672 8.57656 25.2734 9.76719 25.8641 11.1266C26.4547 12.4859 26.75 13.9438 26.75 15.5C26.75 17.0375 26.4547 18.4906 25.8641 19.8594C25.2734 21.2281 24.4672 22.4234 23.4453 23.4453C22.4234 24.4672 21.2328 25.2734 19.8734 25.8641C18.5141 26.4547 17.0563 26.75 15.5 26.75Z" fill="white"/>
</svg>
