<svg width="1311" height="731" viewBox="0 0 1311 731" fill="none" xmlns="http://www.w3.org/2000/svg">
<g id="logo">
<g id="firma">
<path id="R1" d="M79.5002 505.5C81.3335 525.833 75.0002 561.9 35.0002 543.5C-14.9998 520.5 15.5002 390.5 35.0002 343.5C56.0641 292.73 183.5 19.5001 381 8.50004C506.658 1.50134 478.08 100.5 447 145C429.699 169.772 393.401 220.927 359 253C262.168 343.281 129.5 423.5 101 343.5" stroke="#404040" stroke-width="15" stroke-linecap="round" stroke-linejoin="round"/>
<path id="R2" d="M240.5 181.5C226.5 195 199 262 182.5 330C166 398 125.5 538 125.5 538C119.5 552 126.3 562.2 145.5 547" stroke="#404040" stroke-width="15" stroke-linecap="round" stroke-linejoin="round"/>
<path id="RO" d="M200 361.5C214.5 386 217.2 428.2 216 461V504.5C216 514 224.5 518.5 236 501C241.333 494.833 252.5 476.7 254.5 453.5C248.667 478.5 242.4 531.8 264 545C281.5 555.694 299.5 548 304.5 541C309.5 534 320 491.5 312 457C308.29 441 298.3 425.2 281.5 430C264.7 434.8 267.833 450.667 271.5 458" stroke="#404040" stroke-width="15" stroke-linecap="round" stroke-linejoin="round"/>
<path id="MI" d="M335.5 430C325.667 471.5 316 555 339.5 566C348 548.5 376.2 441.9 379 433.5C382.5 423 361 544 379 548.5C393.4 552.1 413.333 477.333 421.5 439.5C411.5 479.333 398.2 555 427 555C438.5 551.667 463.3 531.1 470.5 475.5C465.5 501 459.6 551.3 476 548.5M470.5 442H473" stroke="#404040" stroke-width="15" stroke-linecap="round" stroke-linejoin="round"/>
<path id="NA" d="M497 468.5C481.5 507.5 486.929 547.086 494 548.5C526.5 555 520 437 529.5 433.5C539 430 570 437 557 483C547.158 517.824 539 539.833 542.5 545C555.667 552.667 587.3 547.2 608.5 464C605.5 491 607.8 543.8 641 539C643.271 538.672 645.436 538.181 647.5 537.545M647.5 537.545C616.7 547.981 608.667 507.197 608.5 485.5C607.167 477.167 622.5 442 647.5 437C675.326 431.435 686.167 456 686 475.5C685.334 486.445 681.58 504.032 672.3 518M647.5 537.545C658.379 534.194 666.441 526.819 672.3 518M672.3 518C672.7 528.167 679.7 548.5 704.5 548.5" stroke="#404040" stroke-width="15" stroke-linecap="round" stroke-linejoin="round"/>
<path id="E1" d="M1009 182.5C1032.33 130.5 1040.5 21.5001 907.5 29.0001C777.194 36.3481 541 558 805 552.5C855.989 551.438 903 496 921 435" stroke="#404040" stroke-width="15" stroke-linecap="round" stroke-linejoin="round"/>
<path id="E2" d="M791.5 373C773.667 387.667 728.4 402 688 402" stroke="#404040" stroke-width="15" stroke-linecap="round" stroke-linejoin="round"/>
<path id="M" d="M935.588 421C925.755 462.5 916.088 546 939.588 557C948.088 539.5 976.288 432.9 979.088 424.5C982.588 414 961.088 535 979.088 539.5C993.488 543.1 1013.42 468.333 1021.59 430.5C1011.59 470.333 998.288 546 1027.09 546C1030.73 546.167 1042.2 542.1 1047 532.5" stroke="#404040" stroke-width="15" stroke-linecap="round" stroke-linejoin="round"/>
<path id="MA" d="M1057.59 421C1047.75 462.5 1038.09 546 1061.59 557C1070.09 539.5 1098.29 432.9 1101.09 424.5C1104.59 414 1083.09 535 1101.09 539.5C1115.49 543.1 1135.42 468.333 1143.59 430.5C1133.59 470.333 1120.29 546 1149.09 546C1149.09 546 1173 544 1194 463M1199 460C1192.83 481.333 1181 538 1217 546C1248.5 553 1266.45 521.5 1269 502M1269 502C1270.78 488.387 1279.14 468.783 1269 448.5C1259 428.5 1225 430.5 1213 448.5C1202.5 454.5 1193 487.5 1199 507.5M1269 502C1266.67 519.833 1265.8 556.4 1303 546" stroke="#404040" stroke-width="15" stroke-linecap="round" stroke-linejoin="round"/>
</g>
<g id="text">
<path id="F1" d="M167.415 730C166.08 730 164.958 729.545 164.048 728.635C163.138 727.725 162.683 726.603 162.683 725.268V663.661C162.683 662.265 163.138 661.143 164.048 660.294C164.958 659.384 166.08 658.929 167.415 658.929H208.547C209.942 658.929 211.065 659.353 211.914 660.203C212.763 660.992 213.188 662.053 213.188 663.388C213.188 664.662 212.763 665.693 211.914 666.482C211.065 667.27 209.942 667.665 208.547 667.665H172.147V689.778H198.264C199.659 689.778 200.782 690.202 201.631 691.052C202.48 691.84 202.905 692.872 202.905 694.146C202.905 695.42 202.48 696.481 201.631 697.331C200.782 698.119 199.659 698.514 198.264 698.514H172.147V725.268C172.147 726.603 171.692 727.725 170.782 728.635C169.872 729.545 168.75 730 167.415 730Z" fill="#404040"/>
<path id="O1" d="M300.002 730.91C294.663 730.91 289.78 730.03 285.351 728.271C280.922 726.451 277.1 723.933 273.885 720.718C270.73 717.442 268.273 713.589 266.514 709.161C264.755 704.671 263.875 699.757 263.875 694.419C263.875 689.08 264.755 684.196 266.514 679.768C268.273 675.339 270.73 671.517 273.885 668.302C277.1 665.026 280.922 662.508 285.351 660.749C289.78 658.929 294.663 658.019 300.002 658.019C305.341 658.019 310.194 658.929 314.562 660.749C318.991 662.508 322.813 665.026 326.028 668.302C329.243 671.517 331.731 675.339 333.49 679.768C335.249 684.196 336.129 689.08 336.129 694.419C336.129 699.757 335.249 704.671 333.49 709.161C331.731 713.589 329.243 717.442 326.028 720.718C322.813 723.933 318.991 726.451 314.562 728.271C310.194 730.03 305.341 730.91 300.002 730.91ZM300.002 722.356C303.945 722.356 307.555 721.658 310.831 720.263C314.168 718.807 317.049 716.835 319.476 714.348C321.903 711.8 323.753 708.827 325.027 705.43C326.362 702.032 327.029 698.362 327.029 694.419C327.029 690.475 326.362 686.805 325.027 683.408C323.753 680.01 321.903 677.068 319.476 674.581C317.049 672.033 314.168 670.061 310.831 668.666C307.555 667.27 303.945 666.573 300.002 666.573C296.059 666.573 292.419 667.27 289.082 668.666C285.806 670.061 282.955 672.033 280.528 674.581C278.162 677.068 276.312 680.01 274.977 683.408C273.642 686.805 272.975 690.475 272.975 694.419C272.975 698.362 273.642 702.032 274.977 705.43C276.312 708.827 278.162 711.8 280.528 714.348C282.955 716.835 285.806 718.807 289.082 720.263C292.419 721.658 296.059 722.356 300.002 722.356Z" fill="#404040"/>
<path id="T" d="M408.413 730C407.078 730 405.956 729.545 405.046 728.635C404.136 727.725 403.681 726.603 403.681 725.268V658.929H413.145V725.268C413.145 726.603 412.69 727.725 411.78 728.635C410.87 729.545 409.748 730 408.413 730ZM384.025 667.665C382.751 667.665 381.689 667.27 380.84 666.482C380.051 665.633 379.657 664.571 379.657 663.297C379.657 662.023 380.051 660.992 380.84 660.203C381.689 659.353 382.751 658.929 384.025 658.929H432.71C433.984 658.929 435.015 659.353 435.804 660.203C436.653 660.992 437.078 662.023 437.078 663.297C437.078 664.571 436.653 665.633 435.804 666.482C435.015 667.27 433.984 667.665 432.71 667.665H384.025Z" fill="#404040"/>
<path id="O2" d="M517.734 730.91C512.395 730.91 507.511 730.03 503.083 728.271C498.654 726.451 494.832 723.933 491.617 720.718C488.462 717.442 486.005 713.589 484.246 709.161C482.486 704.671 481.607 699.757 481.607 694.419C481.607 689.08 482.486 684.196 484.246 679.768C486.005 675.339 488.462 671.517 491.617 668.302C494.832 665.026 498.654 662.508 503.083 660.749C507.511 658.929 512.395 658.019 517.734 658.019C523.072 658.019 527.926 658.929 532.294 660.749C536.723 662.508 540.545 665.026 543.76 668.302C546.975 671.517 549.462 675.339 551.222 679.768C552.981 684.196 553.861 689.08 553.861 694.419C553.861 699.757 552.981 704.671 551.222 709.161C549.462 713.589 546.975 717.442 543.76 720.718C540.545 723.933 536.723 726.451 532.294 728.271C527.926 730.03 523.072 730.91 517.734 730.91ZM517.734 722.356C521.677 722.356 525.287 721.658 528.563 720.263C531.899 718.807 534.781 716.835 537.208 714.348C539.635 711.8 541.485 708.827 542.759 705.43C544.093 702.032 544.761 698.362 544.761 694.419C544.761 690.475 544.093 686.805 542.759 683.408C541.485 680.01 539.635 677.068 537.208 674.581C534.781 672.033 531.899 670.061 528.563 668.666C525.287 667.27 521.677 666.573 517.734 666.573C513.79 666.573 510.15 667.27 506.814 668.666C503.538 670.061 500.686 672.033 498.26 674.581C495.894 677.068 494.043 680.01 492.709 683.408C491.374 686.805 490.707 690.475 490.707 694.419C490.707 698.362 491.374 702.032 492.709 705.43C494.043 708.827 495.894 711.8 498.26 714.348C500.686 716.835 503.538 718.807 506.814 720.263C510.15 721.658 513.79 722.356 517.734 722.356Z" fill="#404040"/>
<path id="G" d="M640.617 730.91C635.703 730.91 631.093 730 626.785 728.18C622.539 726.299 618.808 723.721 615.592 720.445C612.438 717.108 609.95 713.225 608.13 708.797C606.371 704.368 605.491 699.575 605.491 694.419C605.491 689.323 606.371 684.591 608.13 680.223C609.95 675.794 612.438 671.942 615.592 668.666C618.808 665.329 622.539 662.72 626.785 660.84C631.032 658.959 635.643 658.019 640.617 658.019C645.289 658.019 649.293 658.625 652.629 659.839C656.027 661.052 659.424 663.054 662.821 665.845C663.307 666.209 663.671 666.603 663.913 667.028C664.217 667.392 664.399 667.786 664.459 668.211C664.581 668.575 664.641 669.03 664.641 669.576C664.641 670.728 664.217 671.699 663.367 672.488C662.579 673.276 661.578 673.701 660.364 673.762C659.212 673.822 658.12 673.428 657.088 672.579C654.844 670.637 652.508 669.151 650.081 668.12C647.715 667.088 644.561 666.573 640.617 666.573C637.038 666.573 633.671 667.301 630.516 668.757C627.362 670.213 624.571 672.215 622.144 674.763C619.778 677.311 617.928 680.283 616.593 683.681C615.259 687.017 614.591 690.597 614.591 694.419C614.591 698.301 615.259 701.941 616.593 705.339C617.928 708.675 619.778 711.618 622.144 714.166C624.571 716.714 627.362 718.716 630.516 720.172C633.671 721.567 637.038 722.265 640.617 722.265C643.711 722.265 646.623 721.749 649.353 720.718C652.144 719.626 654.813 718.139 657.361 716.259C658.453 715.47 659.515 715.136 660.546 715.258C661.638 715.318 662.548 715.743 663.276 716.532C664.004 717.26 664.368 718.291 664.368 719.626C664.368 720.232 664.247 720.839 664.004 721.446C663.822 721.992 663.458 722.507 662.912 722.993C659.697 725.662 656.209 727.664 652.447 728.999C648.686 730.273 644.743 730.91 640.617 730.91ZM664.368 719.626L655.268 717.806V701.517H642.71C641.376 701.517 640.253 701.122 639.343 700.334C638.433 699.545 637.978 698.544 637.978 697.331C637.978 696.117 638.433 695.116 639.343 694.328C640.253 693.539 641.376 693.145 642.71 693.145H659.727C661.123 693.145 662.245 693.6 663.094 694.51C663.944 695.359 664.368 696.481 664.368 697.877V719.626Z" fill="#404040"/>
<path id="R" d="M726.097 730C724.763 730 723.64 729.545 722.73 728.635C721.82 727.725 721.365 726.602 721.365 725.268V663.661C721.365 662.265 721.82 661.143 722.73 660.294C723.64 659.384 724.763 658.929 726.097 658.929H742.477C747.027 658.929 751.062 659.899 754.58 661.841C758.099 663.721 760.829 666.33 762.77 669.667C764.772 673.003 765.773 676.886 765.773 681.315C765.773 685.44 764.772 689.11 762.77 692.326C760.829 695.541 758.099 698.059 754.58 699.879C751.062 701.699 747.027 702.609 742.477 702.609H730.829V725.268C730.829 726.602 730.374 727.725 729.464 728.635C728.615 729.545 727.493 730 726.097 730ZM763.862 730C763.013 730 762.224 729.818 761.496 729.454C760.829 729.09 760.253 728.513 759.767 727.725L743.387 701.335L752.578 698.696L767.502 722.72C768.594 724.479 768.746 726.147 767.957 727.725C767.169 729.241 765.804 730 763.862 730ZM730.829 693.873H742.477C745.268 693.873 747.725 693.357 749.848 692.326C751.972 691.234 753.64 689.747 754.853 687.867C756.067 685.925 756.673 683.741 756.673 681.315C756.673 678.645 756.067 676.279 754.853 674.217C753.64 672.154 751.972 670.546 749.848 669.394C747.725 668.241 745.268 667.665 742.477 667.665H730.829V693.873Z" fill="#404040"/>
<path id="A1" d="M817.902 730C816.203 730 814.899 729.272 813.989 727.816C813.079 726.36 812.988 724.813 813.716 723.175L839.287 662.114C840.197 659.99 841.683 658.929 843.746 658.929C845.93 658.929 847.416 659.99 848.205 662.114L873.867 723.357C874.534 725.055 874.413 726.602 873.503 727.998C872.653 729.332 871.349 730 869.59 730C868.68 730 867.8 729.757 866.951 729.272C866.162 728.726 865.586 727.998 865.222 727.088L842.654 671.032H845.202L822.27 727.088C821.845 728.058 821.208 728.786 820.359 729.272C819.57 729.757 818.751 730 817.902 730ZM822.725 714.348L826.365 706.522H862.037L865.677 714.348H822.725Z" fill="#404040"/>
<path id="F2" d="M925.566 730C924.231 730 923.109 729.545 922.199 728.635C921.289 727.725 920.834 726.602 920.834 725.268V663.661C920.834 662.265 921.289 661.143 922.199 660.294C923.109 659.384 924.231 658.929 925.566 658.929H966.698C968.093 658.929 969.216 659.353 970.065 660.203C970.914 660.991 971.339 662.053 971.339 663.388C971.339 664.662 970.914 665.693 970.065 666.482C969.216 667.27 968.093 667.665 966.698 667.665H930.298V689.778H956.415C957.81 689.778 958.933 690.202 959.782 691.052C960.631 691.84 961.056 692.872 961.056 694.146C961.056 695.42 960.631 696.481 959.782 697.331C958.933 698.119 957.81 698.514 956.415 698.514H930.298V725.268C930.298 726.602 929.843 727.725 928.933 728.635C928.023 729.545 926.901 730 925.566 730Z" fill="#404040"/>
<path id="I" d="M1030.03 730C1028.7 730 1027.58 729.545 1026.67 728.635C1025.76 727.725 1025.3 726.602 1025.3 725.268V663.661C1025.3 662.265 1025.76 661.143 1026.67 660.294C1027.58 659.384 1028.7 658.929 1030.03 658.929C1031.43 658.929 1032.55 659.384 1033.4 660.294C1034.31 661.143 1034.77 662.265 1034.77 663.661V725.268C1034.77 726.602 1034.31 727.725 1033.4 728.635C1032.55 729.545 1031.43 730 1030.03 730Z" fill="#404040"/>
<path id="A2" d="M1091.98 730C1090.28 730 1088.98 729.272 1088.07 727.816C1087.16 726.36 1087.06 724.813 1087.79 723.175L1113.36 662.114C1114.27 659.99 1115.76 658.929 1117.82 658.929C1120.01 658.929 1121.49 659.99 1122.28 662.114L1147.94 723.357C1148.61 725.055 1148.49 726.602 1147.58 727.998C1146.73 729.332 1145.43 730 1143.67 730C1142.76 730 1141.88 729.757 1141.03 729.272C1140.24 728.726 1139.66 727.998 1139.3 727.088L1116.73 671.032H1119.28L1096.35 727.088C1095.92 728.058 1095.28 728.786 1094.44 729.272C1093.65 729.757 1092.83 730 1091.98 730ZM1096.8 714.348L1100.44 706.522H1136.11L1139.75 714.348H1096.8Z" fill="#404040"/>
</g>
</g>
</svg>
